<mxfile host="app.diagrams.net" modified="2023-03-20T11:35:30.425Z" agent="5.0 (Windows NT 10.0; Win64; x64) AppleWebKit/537.36 (KHTML, like Gecko) Chrome/110.0.0.0 Safari/537.36" etag="YimBeLsUur1TXHY0lHkT" version="21.0.8" type="github">
  <diagram id="9F2RWNPDTYHyE4WO8ziS" name="第 1 页">
    <mxGraphModel dx="1428" dy="722" grid="1" gridSize="10" guides="1" tooltips="1" connect="1" arrows="1" fold="1" page="1" pageScale="1" pageWidth="827" pageHeight="1169" math="0" shadow="0">
      <root>
        <mxCell id="0" />
        <mxCell id="1" parent="0" />
        <mxCell id="u35DSJKI10l-lIpYxmWB-1" value="基座应用&lt;br&gt;（容器环境）" style="rounded=0;whiteSpace=wrap;html=1;fillColor=#FFF2CC;strokeColor=#ddd;arcSize=20;fontSize=20;fontFamily=微软雅黑;align=left;spacingLeft=17;verticalAlign=bottom;spacingBottom=6;" parent="1" vertex="1">
          <mxGeometry x="140" y="60" width="210" height="390" as="geometry" />
        </mxCell>
        <mxCell id="u35DSJKI10l-lIpYxmWB-3" value="依赖" style="rounded=0;whiteSpace=wrap;html=1;strokeColor=none;fillColor=#C9F4AA;fontSize=16;fontFamily=微软雅黑;" parent="1" vertex="1">
          <mxGeometry x="140" y="60" width="120" height="240" as="geometry" />
        </mxCell>
        <mxCell id="u35DSJKI10l-lIpYxmWB-8" value="注册" style="ellipse;labelPosition=right;verticalLabelPosition=middle;align=left;verticalAlign=middle;spacingLeft=6;fillColor=#c9f4aa;strokeColor=none;fontSize=16;fontFamily=微软雅黑;" parent="1" vertex="1">
          <mxGeometry x="580" y="60" width="16" height="16" as="geometry" />
        </mxCell>
        <mxCell id="u35DSJKI10l-lIpYxmWB-9" value="未注册" style="ellipse;labelPosition=right;verticalLabelPosition=middle;align=left;verticalAlign=middle;spacingLeft=6;fillColor=#19a7ce;strokeColor=none;fontSize=16;fontFamily=微软雅黑;" parent="1" vertex="1">
          <mxGeometry x="580" y="89.5" width="16" height="16" as="geometry" />
        </mxCell>
        <mxCell id="4O4Cs_ORfhC9OFEFM0jc-16" value="" style="group" vertex="1" connectable="0" parent="1">
          <mxGeometry x="340" y="190" width="144" height="50" as="geometry" />
        </mxCell>
        <mxCell id="4O4Cs_ORfhC9OFEFM0jc-8" value="子应用" style="rounded=0;whiteSpace=wrap;html=1;strokeColor=#DDDDDD;fillColor=#c9f4aa;container=0;fontSize=16;fontFamily=微软雅黑;" vertex="1" parent="4O4Cs_ORfhC9OFEFM0jc-16">
          <mxGeometry x="11" width="120" height="50" as="geometry" />
        </mxCell>
        <mxCell id="4O4Cs_ORfhC9OFEFM0jc-9" value="" style="rounded=0;whiteSpace=wrap;html=1;strokeColor=#333;container=0;" vertex="1" parent="4O4Cs_ORfhC9OFEFM0jc-16">
          <mxGeometry x="120" y="8" width="24" height="12" as="geometry" />
        </mxCell>
        <mxCell id="4O4Cs_ORfhC9OFEFM0jc-10" value="" style="rounded=0;whiteSpace=wrap;html=1;strokeColor=#333;container=0;" vertex="1" parent="4O4Cs_ORfhC9OFEFM0jc-16">
          <mxGeometry x="120" y="29" width="24" height="11" as="geometry" />
        </mxCell>
        <mxCell id="4O4Cs_ORfhC9OFEFM0jc-11" value="" style="rounded=0;whiteSpace=wrap;html=1;strokeColor=#333;container=0;" vertex="1" parent="4O4Cs_ORfhC9OFEFM0jc-16">
          <mxGeometry y="9" width="24" height="12" as="geometry" />
        </mxCell>
        <mxCell id="4O4Cs_ORfhC9OFEFM0jc-13" value="" style="rounded=0;whiteSpace=wrap;html=1;strokeColor=#333;container=0;" vertex="1" parent="4O4Cs_ORfhC9OFEFM0jc-16">
          <mxGeometry y="29" width="24" height="12" as="geometry" />
        </mxCell>
        <mxCell id="4O4Cs_ORfhC9OFEFM0jc-19" value="" style="group" vertex="1" connectable="0" parent="1">
          <mxGeometry x="364" y="380" width="192" height="35" as="geometry" />
        </mxCell>
        <mxCell id="4O4Cs_ORfhC9OFEFM0jc-15" value="待接入子应用" style="rounded=0;whiteSpace=wrap;html=1;strokeColor=#ddd;fillColor=#19A7CE;fontSize=16;fontFamily=微软雅黑;" vertex="1" parent="4O4Cs_ORfhC9OFEFM0jc-19">
          <mxGeometry x="10" width="170" height="35" as="geometry" />
        </mxCell>
        <mxCell id="4O4Cs_ORfhC9OFEFM0jc-17" value="" style="rounded=0;whiteSpace=wrap;html=1;strokeColor=#333;container=0;" vertex="1" parent="4O4Cs_ORfhC9OFEFM0jc-19">
          <mxGeometry y="11.5" width="24" height="12" as="geometry" />
        </mxCell>
        <mxCell id="4O4Cs_ORfhC9OFEFM0jc-18" value="" style="rounded=0;whiteSpace=wrap;html=1;strokeColor=#333;container=0;" vertex="1" parent="4O4Cs_ORfhC9OFEFM0jc-19">
          <mxGeometry x="168" y="11.5" width="24" height="12" as="geometry" />
        </mxCell>
        <mxCell id="4O4Cs_ORfhC9OFEFM0jc-20" value="" style="group" vertex="1" connectable="0" parent="1">
          <mxGeometry x="340" y="250" width="144" height="50" as="geometry" />
        </mxCell>
        <mxCell id="4O4Cs_ORfhC9OFEFM0jc-21" value="子应用" style="rounded=0;whiteSpace=wrap;html=1;strokeColor=#DDDDDD;fillColor=#c9f4aa;container=0;fontSize=16;fontFamily=微软雅黑;" vertex="1" parent="4O4Cs_ORfhC9OFEFM0jc-20">
          <mxGeometry x="11" width="120" height="50" as="geometry" />
        </mxCell>
        <mxCell id="4O4Cs_ORfhC9OFEFM0jc-22" value="" style="rounded=0;whiteSpace=wrap;html=1;strokeColor=#333;container=0;" vertex="1" parent="4O4Cs_ORfhC9OFEFM0jc-20">
          <mxGeometry x="120" y="8" width="24" height="12" as="geometry" />
        </mxCell>
        <mxCell id="4O4Cs_ORfhC9OFEFM0jc-23" value="" style="rounded=0;whiteSpace=wrap;html=1;strokeColor=#333;container=0;" vertex="1" parent="4O4Cs_ORfhC9OFEFM0jc-20">
          <mxGeometry x="120" y="29" width="24" height="11" as="geometry" />
        </mxCell>
        <mxCell id="4O4Cs_ORfhC9OFEFM0jc-24" value="" style="rounded=0;whiteSpace=wrap;html=1;strokeColor=#333;container=0;" vertex="1" parent="4O4Cs_ORfhC9OFEFM0jc-20">
          <mxGeometry y="9" width="24" height="12" as="geometry" />
        </mxCell>
        <mxCell id="4O4Cs_ORfhC9OFEFM0jc-25" value="" style="rounded=0;whiteSpace=wrap;html=1;strokeColor=#333;container=0;" vertex="1" parent="4O4Cs_ORfhC9OFEFM0jc-20">
          <mxGeometry y="29" width="24" height="12" as="geometry" />
        </mxCell>
        <mxCell id="4O4Cs_ORfhC9OFEFM0jc-26" value="" style="group" vertex="1" connectable="0" parent="1">
          <mxGeometry x="340" y="310" width="144" height="50" as="geometry" />
        </mxCell>
        <mxCell id="4O4Cs_ORfhC9OFEFM0jc-27" value="子应用" style="rounded=0;whiteSpace=wrap;html=1;strokeColor=#DDDDDD;fillColor=#c9f4aa;container=0;fontSize=16;fontFamily=微软雅黑;" vertex="1" parent="4O4Cs_ORfhC9OFEFM0jc-26">
          <mxGeometry x="11" width="120" height="50" as="geometry" />
        </mxCell>
        <mxCell id="4O4Cs_ORfhC9OFEFM0jc-28" value="" style="rounded=0;whiteSpace=wrap;html=1;strokeColor=#333;container=0;" vertex="1" parent="4O4Cs_ORfhC9OFEFM0jc-26">
          <mxGeometry x="120" y="8" width="24" height="12" as="geometry" />
        </mxCell>
        <mxCell id="4O4Cs_ORfhC9OFEFM0jc-29" value="" style="rounded=0;whiteSpace=wrap;html=1;strokeColor=#333;container=0;" vertex="1" parent="4O4Cs_ORfhC9OFEFM0jc-26">
          <mxGeometry x="120" y="29" width="24" height="11" as="geometry" />
        </mxCell>
        <mxCell id="4O4Cs_ORfhC9OFEFM0jc-30" value="" style="rounded=0;whiteSpace=wrap;html=1;strokeColor=#333;container=0;" vertex="1" parent="4O4Cs_ORfhC9OFEFM0jc-26">
          <mxGeometry y="9" width="24" height="12" as="geometry" />
        </mxCell>
        <mxCell id="4O4Cs_ORfhC9OFEFM0jc-31" value="" style="rounded=0;whiteSpace=wrap;html=1;strokeColor=#333;container=0;" vertex="1" parent="4O4Cs_ORfhC9OFEFM0jc-26">
          <mxGeometry y="29" width="24" height="12" as="geometry" />
        </mxCell>
        <mxCell id="4O4Cs_ORfhC9OFEFM0jc-32" value="" style="group" vertex="1" connectable="0" parent="1">
          <mxGeometry x="300" y="80" width="133" height="70" as="geometry" />
        </mxCell>
        <mxCell id="4O4Cs_ORfhC9OFEFM0jc-2" value="公共模块" style="rounded=0;whiteSpace=wrap;html=1;strokeColor=none;fillColor=#c9f4aa;" vertex="1" parent="4O4Cs_ORfhC9OFEFM0jc-32">
          <mxGeometry width="120" height="70" as="geometry" />
        </mxCell>
        <mxCell id="4O4Cs_ORfhC9OFEFM0jc-3" value="" style="rounded=0;whiteSpace=wrap;html=1;strokeColor=#333;" vertex="1" parent="4O4Cs_ORfhC9OFEFM0jc-32">
          <mxGeometry x="109" y="9" width="24" height="12" as="geometry" />
        </mxCell>
        <mxCell id="4O4Cs_ORfhC9OFEFM0jc-4" value="" style="rounded=0;whiteSpace=wrap;html=1;strokeColor=#333;" vertex="1" parent="4O4Cs_ORfhC9OFEFM0jc-32">
          <mxGeometry x="109" y="30" width="24" height="11" as="geometry" />
        </mxCell>
        <mxCell id="4O4Cs_ORfhC9OFEFM0jc-6" value="" style="rounded=0;whiteSpace=wrap;html=1;strokeColor=#333;" vertex="1" parent="4O4Cs_ORfhC9OFEFM0jc-32">
          <mxGeometry x="109" y="49" width="24" height="12" as="geometry" />
        </mxCell>
        <mxCell id="4O4Cs_ORfhC9OFEFM0jc-33" value="&lt;p style=&quot;line-height: 60%;&quot;&gt;.&lt;br style=&quot;font-size: 22px;&quot;&gt;.&lt;br style=&quot;font-size: 22px;&quot;&gt;.&lt;/p&gt;" style="text;html=1;align=center;verticalAlign=middle;resizable=0;points=[];autosize=1;strokeColor=none;fillColor=none;fontSize=22;" vertex="1" parent="1">
          <mxGeometry x="445" y="390" width="30" height="100" as="geometry" />
        </mxCell>
        <mxCell id="4O4Cs_ORfhC9OFEFM0jc-35" style="edgeStyle=orthogonalEdgeStyle;rounded=0;orthogonalLoop=1;jettySize=auto;html=1;entryX=1;entryY=0.5;entryDx=0;entryDy=0;" edge="1" parent="1" source="4O4Cs_ORfhC9OFEFM0jc-3" target="4O4Cs_ORfhC9OFEFM0jc-9">
          <mxGeometry relative="1" as="geometry" />
        </mxCell>
        <mxCell id="4O4Cs_ORfhC9OFEFM0jc-36" style="edgeStyle=orthogonalEdgeStyle;rounded=0;orthogonalLoop=1;jettySize=auto;html=1;entryX=1;entryY=0.5;entryDx=0;entryDy=0;exitX=1;exitY=0.5;exitDx=0;exitDy=0;" edge="1" parent="1" source="4O4Cs_ORfhC9OFEFM0jc-10" target="4O4Cs_ORfhC9OFEFM0jc-22">
          <mxGeometry relative="1" as="geometry">
            <Array as="points">
              <mxPoint x="510" y="225" />
              <mxPoint x="510" y="264" />
            </Array>
          </mxGeometry>
        </mxCell>
        <mxCell id="4O4Cs_ORfhC9OFEFM0jc-37" style="edgeStyle=orthogonalEdgeStyle;rounded=0;orthogonalLoop=1;jettySize=auto;html=1;entryX=1;entryY=0.5;entryDx=0;entryDy=0;exitX=1;exitY=0.5;exitDx=0;exitDy=0;" edge="1" parent="1" source="4O4Cs_ORfhC9OFEFM0jc-18" target="4O4Cs_ORfhC9OFEFM0jc-29">
          <mxGeometry relative="1" as="geometry" />
        </mxCell>
      </root>
    </mxGraphModel>
  </diagram>
</mxfile>
